<svg id="Layer_1" enable-background="new 0 0 512.047 512.047" height="512" viewBox="0 0 512.047 512.047" width="512" xmlns="http://www.w3.org/2000/svg"><g><g clip-rule="evenodd" fill-rule="evenodd"><path d="m85.621 252.612c15.116-14.512 120.652-103.804 3.045-242.273-49.917 8.605-31.475 205.082-8.602 251.89.892-3.57 2.6-6.778 5.557-9.617z" fill="#fff"/><path d="m88.666 10.339c117.608 138.469 12.072 227.761-3.045 242.273-2.957 2.839-4.664 6.047-5.557 9.617-3.671 14.681 6.438 35.469.115 61.734-9.124 37.901-25.833 51.374-20.108 75.2 17.044 70.922 108.107 102.884 195.953 102.884s178.909-31.962 195.953-102.884c5.726-23.827-10.983-37.299-20.108-75.2-6.323-26.265 3.786-47.053.115-61.734-.893-3.57-2.6-6.779-5.557-9.617-15.116-14.512-120.652-103.804-3.045-242.273-21.932-3.781-57.062 28.707-110.811 126.095-13.588-5.716-28.975-2.336-56.547-2.336s-42.959-3.38-56.548 2.336c-53.749-97.388-88.878-129.876-110.81-126.095zm147.202 253.762c0-11.132 9.024-20.156 20.156-20.156s20.156 9.024 20.156 20.156c0 20.861 15.251 34.976 31.126 44.141 42.932 25.698 41.722 62.885 40.513 71.653-1.21 8.768-15.117 16.629-32.047 29.931-9.968 7.832-21.823 13.359-34.061 12.507v16.311c0 14.128-11.559 25.688-25.688 25.688-14.128 0-25.688-11.559-25.688-25.688v-16.311c-12.237.852-24.092-4.675-34.06-12.507-16.931-13.302-30.838-21.163-32.047-29.931-1.21-8.768-2.419-45.955 40.513-71.653 15.875-9.166 31.127-23.28 31.127-44.141z" fill="#ffda8f"/><path d="m423.382 10.339c-117.608 138.469-12.072 227.761 3.045 242.273 2.957 2.839 4.664 6.047 5.557 9.617 22.873-46.808 41.315-243.285-8.602-251.89z" fill="#fff"/><path d="m256.024 381.406c-16.745 0-30.32-14.663-30.32-27.156s13.575-18.084 30.32-18.084 30.32 5.591 30.32 18.084c-.001 12.493-13.575 27.156-30.32 27.156zm51.283-73.164c-15.875-9.165-31.126-23.28-31.126-44.141 0-11.132-9.024-20.156-20.156-20.156s-20.156 9.024-20.156 20.156c0 20.861-15.251 34.976-31.126 44.141-42.932 25.698-41.722 62.885-40.513 71.653 1.21 8.768 15.117 16.629 32.047 29.931 9.968 7.832 21.823 13.359 34.06 12.507 8.547-.595 17.28-4.301 25.688-12.507 8.407 8.206 17.141 11.912 25.688 12.507 12.237.852 24.092-4.675 34.061-12.507 16.931-13.302 30.838-21.163 32.047-29.931 1.208-8.768 2.417-45.955-40.514-71.653z" fill="#fff"/><path d="m225.704 354.25c0 12.493 13.575 27.156 30.32 27.156s30.32-14.663 30.32-27.156-13.575-18.084-30.32-18.084-30.32 5.591-30.32 18.084z" fill="#ff9171"/><path d="m256.024 409.826c-8.407 8.206-17.141 11.912-25.688 12.507v16.311c0 14.128 11.559 25.688 25.688 25.688 14.128 0 25.688-11.56 25.688-25.688v-16.311c-8.547-.595-17.281-4.302-25.688-12.507z" fill="#f1c6dd"/></g><g><path d="m154.322 381.261c1.498 10.856 11.191 18.039 24.608 27.979 3.574 2.648 7.269 5.386 11.167 8.449 10.04 7.888 20.258 12.611 30.239 14.191v6.764c0 19.678 16.009 35.688 35.687 35.688s35.688-16.009 35.688-35.688v-6.762c9.981-1.58 20.201-6.305 30.239-14.192 3.898-3.063 7.594-5.801 11.167-8.448 13.417-9.94 23.11-17.123 24.608-27.979.529-3.836 1.79-17.642-4.205-34.241-6.96-19.275-20.782-35.209-41.079-47.359-.045-.027-.091-.053-.136-.08-17.336-10.009-26.126-21.947-26.126-35.481 0-16.628-13.528-30.156-30.157-30.156s-30.156 13.528-30.156 30.156c0 13.535-8.79 25.472-26.126 35.481-.045.026-.091.053-.136.08-20.297 12.149-34.118 28.083-41.079 47.359-5.993 16.598-4.732 30.403-4.203 34.239zm101.702 73.07c-8.65 0-15.687-7.038-15.687-15.688v-7.936c5.429-1.565 10.686-4.164 15.687-7.803 5.003 3.639 10.259 6.236 15.688 7.802v7.938c-.001 8.649-7.038 15.687-15.688 15.687zm0-82.925c-11.594 0-20.319-10.408-20.319-17.156 0-6.382 12.772-8.084 20.319-8.084s20.32 1.703 20.32 8.084c-.001 6.748-8.726 17.156-20.32 17.156zm-46.211-54.546c29.798-17.231 36.054-38.199 36.054-52.76 0-5.6 4.556-10.156 10.156-10.156 5.601 0 10.157 4.556 10.157 10.156 0 14.561 6.258 35.529 36.055 52.76 39.663 23.782 36.203 57.858 35.686 61.621-.719 2.84-9.962 9.688-16.71 14.689-3.514 2.603-7.496 5.554-11.617 8.792-16.114 12.66-30.752 13.786-43.57 3.388v-15.215c17.882-4.605 30.32-20.991 30.32-35.885 0-13.577-10.592-28.084-40.32-28.084s-40.319 14.507-40.319 28.084c0 14.894 12.437 31.28 30.319 35.885v15.215c-12.818 10.397-27.456 9.272-43.57-3.388-4.122-3.238-8.104-6.189-11.618-8.792-6.749-5-15.991-11.848-16.702-14.643-.525-3.808-3.984-37.885 35.679-61.667z"/><path d="m433.639 3.368c-15.744-8.153-34.53-1.482-55.838 19.827-19.979 19.979-43.534 54.064-70.057 101.353-9.053-1.918-18.77-1.51-30.222-1.021-6.275.268-13.388.572-21.499.572-8.11 0-15.223-.304-21.499-.572-11.45-.488-21.167-.897-30.221 1.022-26.547-47.331-50.12-81.434-70.112-101.408-21.302-21.285-40.082-27.932-55.82-19.753-28.771 14.949-32.797 76.564-31.107 125.619 1.831 53.168 11.138 108.637 22.399 134.516-.978 7.202.017 14.832.998 22.329 1.388 10.604 2.96 22.622-.205 35.771-3.475 14.436-8.12 25.131-12.218 34.567-6.487 14.938-12.089 27.838-7.891 45.311 2.609 10.857 6.908 21.238 12.776 30.854 1.884 3.088 5.175 4.792 8.546 4.792 1.775 0 3.573-.473 5.199-1.465 4.714-2.877 6.204-9.031 3.327-13.745-4.78-7.834-8.28-16.283-10.402-25.11-2.636-10.968.912-19.137 6.789-32.67 4.204-9.68 9.436-21.727 13.317-37.853 4.033-16.751 2.125-31.332.591-43.047-1.773-13.546-2.083-19.458 2.054-23.431.531-.51 1.179-1.115 1.928-1.817 11.163-10.449 40.817-38.207 53.446-81.806 7.196-24.846 7.54-50.74 1.02-76.962-4.796-19.29-13.363-38.873-25.577-58.539 17.804 18.891 38.826 49.796 62.602 92.035-4.72 3.425-9.464 8.005-14.404 14.129-3.468 4.298-2.795 10.594 1.503 14.062s10.594 2.794 14.062-1.503c13.964-17.308 22.176-16.956 46.546-15.916 6.475.276 13.814.59 22.352.59 8.537 0 15.876-.313 22.352-.59 24.372-1.042 32.582-1.392 46.546 15.916 1.976 2.449 4.87 3.721 7.789 3.721 2.204 0 4.424-.726 6.273-2.218 4.298-3.468 4.972-9.764 1.503-14.062-4.941-6.124-9.684-10.705-14.404-14.13 23.776-42.24 44.798-73.144 62.603-92.035-12.212 19.663-20.779 39.243-25.576 58.53-6.521 26.224-6.179 52.12 1.017 76.967 12.627 43.603 42.283 71.361 53.447 81.811.75.702 1.397 1.307 1.928 1.817 4.138 3.973 3.828 9.885 2.054 23.431-1.533 11.716-3.442 26.296.591 43.047 3.882 16.126 9.114 28.172 13.317 37.852 5.877 13.534 9.425 21.703 6.79 32.67-9.032 37.582-40.852 59.53-65.955 71.324-32.8 15.41-75.515 23.897-120.275 23.897-40.074 0-79.296-6.961-110.44-19.601-5.119-2.079-10.95.388-13.027 5.505-2.077 5.118.388 10.95 5.506 13.027 33.962 13.783 74.752 21.068 117.961 21.068 47.639 0 93.374-9.161 128.779-25.795 41.689-19.586 68.279-48.893 76.897-84.752 4.199-17.472-1.404-30.373-7.891-45.311-4.098-9.436-8.742-20.131-12.218-34.566-3.165-13.148-1.592-25.167-.204-35.77.981-7.496 1.976-15.125.999-22.327 11.276-25.916 20.592-81.529 22.405-134.718 1.672-48.999-2.377-110.538-31.15-125.439zm-350.627 237.937c-7.896-27.142-14.344-71.896-15.759-112.986-2.273-65.966 8.111-97.708 18.424-105.917 64.676 79.573 63.782 155.097-2.665 218.903zm361.79-113.178c-1.401 41.112-7.857 85.98-15.767 113.177-66.448-63.806-67.341-139.33-2.665-218.903 10.301 8.201 20.676 39.885 18.432 105.726z"/><path d="m336.182 266.976c0-5.523-4.477-10-10-10h-.007c-5.523 0-9.997 4.477-9.997 10s4.481 10 10.004 10 10-4.477 10-10z"/><path d="m195.866 266.976c0-5.523-4.477-10-10-10h-.007c-5.523 0-9.997 4.477-9.997 10s4.481 10 10.004 10 10-4.477 10-10z"/><path d="m102.398 450.011h-.008c-5.523 0-9.996 4.477-9.996 10s4.481 10 10.004 10 10-4.477 10-10-4.477-10-10-10z"/></g></g></svg>