<svg id="Layer_1" enable-background="new 0 0 512 512" height="512" viewBox="0 0 512 512" width="512" xmlns="http://www.w3.org/2000/svg"><g><g clip-rule="evenodd" fill-rule="evenodd"><path d="m187.272 164.49c11.024-2.667 17.798-13.766 15.132-24.79l-3.215-13.277-7.911-32.67c-1.565-6.469-6.018-11.511-11.671-14.005l-13.172-5.795 8.746-22.729c11.843-20.513-9.1-32.148-24.03-17.218l-23.425 22.915-21.504-9.462-38.311-32.906c-15.673-13.462-35.176 5.643-20.555 22.07l30.965 41.4c1.925 2.207 4.353 4.038 7.211 5.296l68.227 30.02 8.722 36.02c2.668 11.024 13.767 17.798 24.791 15.131z" fill="#ffda8f"/><path d="m320.723 93.754-7.911 32.67-3.215 13.277c-2.667 11.024 4.108 22.123 15.132 24.79s22.122-4.108 24.789-15.132l8.722-36.02 68.227-30.02c2.858-1.258 5.286-3.089 7.211-5.296l30.965-41.4c14.621-16.427-4.882-35.532-20.555-22.07l-38.31 32.907-21.504 9.462-23.425-22.915c-14.93-14.931-35.873-3.295-24.03 17.218l8.746 22.729-13.171 5.795c-5.654 2.493-10.106 7.536-11.671 14.005z" fill="#ffda8f"/><path d="m450.263 127.724c-29.361-3.091-65.83 17.617-77.246 37.764 7.126 9.352 11.106 21.419 11.106 33.63 0 0 13.582 6.978 21.265 20.209 64.534-43.458 44.875-91.603 44.875-91.603z" fill="#a0e5a5"/><path d="m404.307 301.944c79.589-57.882 50.592-83.355 4.851-53.995-3.266 12.188-3.256 32.035-4.851 53.995z" fill="#ffda8f"/><path d="m376.127 389.883c97.702-41.033 58.949-62.387 23.669-52.58-3.906 19.219-10.802 37.875-23.669 52.58z" fill="#ff5a58"/><path d="m127.876 199.118c0-12.211 3.98-24.278 11.106-33.63-11.416-20.148-47.885-40.855-77.246-37.764 0 0-19.659 48.145 44.875 91.603 7.683-13.231 21.265-20.209 21.265-20.209z" fill="#a0e5a5"/><path d="m102.842 247.95c-45.742-29.36-74.739-3.887 4.851 53.995-1.595-21.961-1.586-41.808-4.851-53.995z" fill="#ffda8f"/><path d="m112.203 337.303c-35.28-9.806-74.033 11.548 23.669 52.58-12.866-14.705-19.762-33.361-23.669-52.58z" fill="#ff5a58"/><path d="m112.203 337.303c3.906 19.22 10.803 37.875 23.669 52.58 3.392 3.876 7.198 7.478 11.474 10.744 9.74 7.438 16.502 15.863 21.737 24.6 21.839-40.053 37.639-16.564 86.916-16.564s65.077-23.489 86.916 16.564c5.235-8.737 11.997-17.162 21.737-24.6 4.276-3.266 8.083-6.867 11.474-10.744 12.867-14.705 19.763-33.361 23.67-52.58 2.405-11.836 3.677-23.886 4.51-35.358 1.595-21.961 1.585-41.808 4.851-53.995 3.078-11.487.615-21.073-3.769-28.623-7.683-13.231-21.265-20.209-21.265-20.209 0-12.211-3.98-24.278-11.106-33.63-5.86-7.69-13.848-13.544-23.5-16.13-2.667 11.024-13.766 17.798-24.789 15.132-11.024-2.667-17.798-13.766-15.132-24.79l3.215-13.277c-23.674-6.343-34.113 12.736-56.812 12.736s-33.137-19.08-56.812-12.736l3.215 13.277c2.667 11.024-4.108 22.123-15.132 24.79s-22.122-4.108-24.789-15.132c-9.651 2.586-17.639 8.44-23.5 16.13-7.126 9.352-11.106 21.419-11.106 33.63 0 0-13.582 6.978-21.265 20.209-4.384 7.55-6.847 17.136-3.769 28.623 3.265 12.187 3.256 32.034 4.851 53.995.834 11.472 2.106 23.522 4.511 35.358z" fill="#88df8e"/><path d="m256 408.663c-49.277 0-65.077-23.489-86.916 16.564 3.491 5.827 6.303 11.794 8.865 17.7 13.164 30.34 19.743 59.073 78.051 59.073s64.887-28.733 78.051-59.073c2.562-5.906 5.374-11.872 8.865-17.7-21.839-40.053-37.64-16.564-86.916-16.564z" fill="#a0e5a5"/></g><g><path d="m430.497 92.471c4.146-1.825 7.752-4.475 10.718-7.875.165-.188.322-.383.472-.583l30.73-41.086c10.893-12.555 8.48-27.375.394-35.606-8.107-8.251-22.814-11.023-35.237-.353l-37.184 31.938-13.955 6.141-18.557-18.152c-12.108-12.073-27.267-11.623-35.993-4.926-7.4 5.679-12.832 17.825-4.134 33.535l5.056 13.14-4.449 1.958c-8.766 3.867-15.092 11.449-17.353 20.8l-5.755 23.763c-11.639-.515-20.554 3.805-28.599 7.708-6.954 3.375-12.96 6.289-20.651 6.289s-13.697-2.915-20.651-6.289c-8.038-3.9-16.956-8.219-28.597-7.705l-5.754-23.765c-2.264-9.354-8.59-16.937-17.363-20.806l-4.439-1.954 5.056-13.14c8.7-15.711 3.267-27.856-4.135-33.535-8.726-6.694-23.884-7.146-35.992 4.927l-18.557 18.152-13.955-6.141-37.187-31.939c-12.42-10.669-27.129-7.9-35.235.353-8.088 8.231-10.501 23.051.392 35.606l30.731 41.087c.149.2.307.395.472.583 2.966 3.402 6.573 6.052 10.72 7.876l63.7 28.027 5.484 22.649c-3.859 1.875-7.464 4.213-10.767 6.95-17.414-19.041-50.683-35.32-79.232-32.319-3.663.386-6.818 2.754-8.211 6.165-.61 1.494-5.859 15.16-2.398 34.77 2.945 16.684 13.074 40.92 44.046 64.014-.917 2.586-1.62 5.3-2.072 8.128-18.603-7.921-33.906-6.895-40.991 3.512-4.064 5.969-6.349 16.689 5.848 33.867 8.362 11.778 22.205 24.902 41.165 39.042.482 5.849 1.098 11.83 1.928 17.855-15.826-1.051-30.943 3.286-35.037 15.206-6.098 17.758 15.175 36.703 64.976 57.887 3.406 3.682 7.155 7.156 11.335 10.348 11.043 8.433 17.857 18.486 23.135 28.949-3.755 1.676-7.369 3.457-10.888 5.194-12.483 6.163-23.263 11.487-35.822 9.796-5.466-.734-10.508 3.104-11.243 8.579-.735 5.474 3.105 10.507 8.579 11.243 2.578.346 5.078.506 7.513.506 15.129 0 27.657-6.184 39.826-12.191 3.401-1.678 6.761-3.336 10.154-4.845 11.639 27.865 24.402 56.196 83.466 56.196 59.061 0 71.825-28.327 83.466-56.188 3.392 1.51 6.751 3.167 10.151 4.847 11.95 5.902 24.71 12.204 39.894 12.204 14.72 0 31.718-5.923 52.464-23.876 4.176-3.614 4.632-9.929 1.018-14.105-3.614-4.177-9.93-4.631-14.105-1.018-32.104 27.782-48.172 19.848-70.414 8.863-3.519-1.738-7.133-3.52-10.888-5.197 5.279-10.465 12.093-20.52 23.138-28.954 4.18-3.192 7.929-6.666 11.335-10.348 49.801-21.185 71.072-40.13 64.975-57.887-4.094-11.92-19.21-16.257-35.036-15.206.831-6.026 1.447-12.007 1.928-17.856 18.96-14.14 32.803-27.263 41.165-39.041 12.195-17.178 9.911-27.898 5.848-33.867-7.086-10.406-22.39-11.432-40.991-3.512-.452-2.828-1.155-5.542-2.072-8.128 30.972-23.094 41.1-47.331 44.045-64.014 3.462-19.61-1.787-33.276-2.397-34.77-1.393-3.411-4.547-5.779-8.211-6.165-28.55-3.007-61.819 13.276-79.233 32.319-3.303-2.737-6.908-5.074-10.767-6.95l5.485-22.649zm-100.054 3.633c.785-3.248 2.968-5.874 5.978-7.202l13.172-5.795c4.888-2.15 7.224-7.761 5.306-12.745l-8.746-22.729c-.188-.486-.412-.958-.673-1.409-2.49-4.312-2.599-7.484-1.419-8.389 1.477-1.134 5.588-.888 9.717 3.243.026.026.052.052.078.078l23.426 22.915c2.92 2.856 7.283 3.649 11.021 2.005l21.504-9.462c.902-.397 1.741-.925 2.488-1.567l38.311-32.907c4.392-3.771 7.187-1.567 7.939-.802 2.075 2.113 1.563 5.342-1.37 8.637-.188.212-.368.432-.538.66l-30.703 41.05c-.979 1.058-2.153 1.893-3.492 2.482l-68.228 30.02c-2.854 1.255-4.958 3.77-5.691 6.8l-8.724 36.022c-1.365 5.646-7.068 9.13-12.718 7.764-5.646-1.366-9.128-7.07-7.765-12.716zm-240.883-21.938c-1.339-.589-2.513-1.424-3.492-2.482l-30.704-41.051c-.17-.227-.35-.447-.538-.659-2.934-3.296-3.445-6.525-1.369-8.638.754-.765 3.547-2.97 7.938.802l38.312 32.907c.747.642 1.586 1.17 2.488 1.567l21.504 9.462c3.735 1.644 8.099.851 11.021-2.005l23.426-22.915c.026-.025.052-.052.078-.078 4.129-4.128 8.237-4.376 9.717-3.243 1.179.905 1.07 4.078-1.419 8.39-.261.451-.485.922-.673 1.409l-8.746 22.729c-1.917 4.983.418 10.594 5.306 12.745l13.163 5.792c3.019 1.331 5.2 3.958 5.987 7.208l11.125 45.945c1.366 5.647-2.116 11.352-7.762 12.718-5.657 1.368-11.354-2.118-12.721-7.766l-8.722-36.02c-.733-3.03-2.838-5.544-5.691-6.8zm-20.056 63.269c21.571.664 46.139 14.142 57.378 28.06-4.815 8.159-7.9 17.644-8.759 27.787-4.474 2.967-9.374 7.054-13.74 12.133-36.552-28.043-36.873-56.056-34.879-67.98zm-1.583 108.398c3.068-.669 12.271.282 26.086 8.422 1.27 6.793 1.85 15.905 2.409 26.253-24.612-20.675-28.037-31.794-28.495-34.675zm16.439 101.023c2.719-1.511 10.19-2.714 19.434-1.178 1.721 7.203 3.903 14.313 6.678 21.176-19.97-10.84-24.931-17.676-26.112-19.998zm171.64 145.144c-44.835 0-53.922-17.499-64.278-42.146 6.95-1.002 14.459-.684 22.993 1.792 5.311 1.539 10.853-1.513 12.391-6.817 1.539-5.304-1.513-10.852-6.816-12.391-14.12-4.097-26.132-3.825-36.795-1.462-.915-1.9-1.878-3.805-2.897-5.71 9.759-16.014 16.114-14.81 35.57-11.076 10.382 1.993 23.303 4.473 39.833 4.473s29.451-2.48 39.833-4.473c19.438-3.731 25.816-4.939 35.572 11.073-1.02 1.906-1.984 3.813-2.9 5.715-10.664-2.365-22.676-2.637-36.795 1.46-5.304 1.539-8.355 7.086-6.816 12.391 1.538 5.304 7.088 8.355 12.391 6.817 8.535-2.477 16.044-2.794 22.994-1.791-10.359 24.646-19.446 42.145-64.28 42.145zm171.64-145.144c-1.181 2.322-6.142 9.158-26.112 19.998 2.775-6.864 4.957-13.974 6.678-21.177 9.247-1.536 16.716-.332 19.434 1.179zm16.439-101.023c-.459 2.881-3.884 13.999-28.495 34.674.559-10.347 1.139-19.459 2.408-26.252 13.817-8.14 23.013-9.091 26.087-8.422zm-1.592-108.397c2 11.985 1.639 39.968-34.869 67.979-4.366-5.079-9.266-9.167-13.74-12.133-.858-10.143-3.944-19.628-8.76-27.787 11.238-13.917 35.799-27.394 57.369-28.059zm-68.363 61.682c0 3.717 2.101 7.148 5.393 8.875 1.074.563 26.227 14.065 19.982 37.368-2.595 9.682-3.283 22.668-4.08 37.704-2.007 37.836-4.503 84.923-36.835 109.613-6.092 4.652-11.122 9.63-15.38 14.783-9.446-11.742-19.156-15.355-29.432-15.588-1.576-11.388-6.035-20.722-10.381-29.802-5.326-11.128-10.356-21.64-10.356-36.393 0-5.523-4.478-10-10-10s-10 4.477-10 10c0 19.292 6.543 32.964 12.315 45.026 3.874 8.094 7.319 15.308 8.543 23.493-.608.116-1.217.233-1.829.35-10.047 1.929-21.435 4.114-36.063 4.114-14.629 0-26.017-2.186-36.063-4.114-.612-.117-1.221-.234-1.828-.35 1.224-8.185 4.669-15.398 8.542-23.493 5.772-12.063 12.315-25.735 12.315-45.026 0-5.523-4.478-10-10-10s-10 4.477-10 10c0 14.752-5.03 25.264-10.356 36.393-4.345 9.08-8.804 18.413-10.38 29.8-10.278.231-19.988 3.847-29.433 15.589-4.258-5.153-9.288-10.131-15.38-14.782-32.332-24.69-34.828-71.777-36.835-109.613-.797-15.036-1.485-28.021-4.08-37.704-6.244-23.302 18.908-36.804 19.945-37.348 3.334-1.713 5.43-5.147 5.43-8.895 0-15.825 7.927-30.155 19.669-36.952 5.671 7.984 14.952 12.903 24.899 12.903 2.37 0 4.777-.278 7.18-.859 16.365-3.959 26.458-20.495 22.499-36.861 0 0 0-.001-.001-.002l-.484-2c4.945.661 9.469 2.844 14.979 5.518 8.014 3.888 17.096 8.295 29.383 8.295s21.37-4.407 29.383-8.295c5.504-2.67 10.03-4.858 14.98-5.519l-.485 2.001c-.001.001-.001.002-.001.003-3.958 16.366 6.136 32.901 22.5 36.86 2.403.582 4.81.859 7.18.859 9.946 0 19.227-4.92 24.898-12.903 11.739 6.798 19.667 21.127 19.667 36.952z"/><path d="m203.208 283.519h-.008c-5.522 0-9.996 4.477-9.996 10s4.481 10 10.004 10 10-4.477 10-10-4.478-10-10-10z"/><path d="m308.799 283.519h-.007c-5.522 0-9.997 4.477-9.997 10s4.481 10 10.004 10 10-4.477 10-10-4.477-10-10-10z"/><path d="m76.57 431.424h-.008c-5.522 0-9.996 4.477-9.996 10s4.481 10 10.004 10 10-4.477 10-10-4.478-10-10-10z"/></g></g></svg>