<svg id="Layer_1" enable-background="new 0 0 512 512" height="512" viewBox="0 0 512 512" width="512" xmlns="http://www.w3.org/2000/svg"><g><g clip-rule="evenodd" fill-rule="evenodd"><path d="m234.132 160.36c-45.867-136.243-170.19-47.334-215.878-97.64-3.355-3.693-8.254-3.094-8.254 3.148 0 105.112 127.118 13.997 156.867 127.375 30.008 1.75 54.681-8.486 69-27.5-.566-1.832-1.144-3.626-1.735-5.383z" fill="#ffda8f"/><path d="m166.867 193.244c-36.991 7.315-51.991 40.815-52.991 60.815 0 0 23.347 15.854 47.235 2.31-.359-22.584 3.773-43.676 5.756-63.125z" fill="#fff"/><path d="m166.867 193.244c-1.982 19.449-6.115 40.542-5.756 63.126.269 16.927 3.062 34.692 11.176 53.231 24.667 56.358 20.304 67.633 23.128 86.53 3.846 25.732 23.751 54.294 60.585 55.431 36.834-1.137 56.739-29.699 60.585-55.431 2.824-18.897-1.538-30.172 23.128-86.53 8.114-18.539 10.907-36.303 11.176-53.231.359-22.584-3.773-43.676-5.756-63.126-30.008 1.75-54.681-8.486-69-27.5.565-1.833 1.143-3.627 1.735-5.383h-43.736c.591 1.757 1.17 3.551 1.735 5.383-14.32 19.013-38.992 29.25-69 27.5zm61.128 191.654c2.277-10.017 15.429-10.585 28.005-10.585s25.728.568 28.005 10.585c3.654 16.077-13.64 29.915-28.005 29.915-14.365-.001-31.658-13.838-28.005-29.915z" fill="#fff"/><path d="m276.133 165.743c14.319 19.014 38.991 29.25 69 27.5 29.748-113.378 156.867-22.263 156.867-127.375 0-6.242-4.9-6.841-8.254-3.148-45.688 50.306-170.011-38.603-215.878 97.64-.591 1.757-1.17 3.551-1.735 5.383z" fill="#ffda8f"/><path d="m345.133 193.244c1.982 19.449 6.115 40.542 5.756 63.126 23.888 13.544 47.235-2.31 47.235-2.31-1-20.001-16-53.501-52.991-60.816z" fill="#fff"/><path d="m284.004 384.898c-2.276-10.017-15.429-10.585-28.005-10.585s-25.728.568-28.005 10.585c-3.653 16.077 13.64 29.915 28.005 29.915 14.366-.001 31.659-13.838 28.005-29.915z" fill="#8690af"/></g><g><path d="m503.02 51.335c-5.595-2.161-12.143-.332-16.676 4.662-14.258 15.698-40.019 14.799-69.846 13.762-26.463-.924-56.451-1.967-83.469 9.371-28.285 11.87-48.718 35.237-62.213 71.23h-29.634c-13.495-35.993-33.928-59.361-62.213-71.23-27.017-11.336-57.008-10.293-83.468-9.371-29.83 1.037-55.588 1.936-69.845-13.762-4.535-4.994-11.081-6.824-16.677-4.661-5.622 2.172-8.979 7.605-8.979 14.532 0 55.146 33.243 64.516 64.401 68.97 5.467.785 10.533-3.017 11.314-8.484.782-5.467-3.017-10.533-8.484-11.314-25.283-3.614-42.847-8.444-46.517-37.007 20.058 13.644 47.103 12.703 75.483 11.714 25.13-.876 50.677-1.763 73.207 7.181-1.54 2.458-3.787 5.047-6.548 7.501-4.128 3.669-4.5 9.99-.831 14.118 1.976 2.223 4.721 3.356 7.478 3.356 2.363 0 4.735-.833 6.64-2.526 3.483-3.096 7.659-7.476 10.812-12.829 6.53 4.74 12.665 10.731 18.296 18.283-5.496 4.038-12.294 7.525-14.677 8.121-5.358 1.34-8.616 6.769-7.276 12.127 1.136 4.544 5.213 7.577 9.694 7.577.802 0 1.619-.098 2.433-.301 5.295-1.324 13.465-5.629 20.289-10.434 3.243 6.428 6.239 13.613 8.951 21.667-11.534 12.563-29.348 19.592-50.238 19.839-4.35-13.609-10.329-24.808-18.171-34.077-3.567-4.216-9.877-4.742-14.093-1.174-4.216 3.567-4.742 9.877-1.174 14.093 5.514 6.516 9.902 14.445 13.307 24.053-34.889 12.134-49.332 45.738-50.408 67.239-.174 3.486 1.482 6.812 4.37 8.772.961.652 20.389 13.555 43.632 8.262 1.39 13.767 4.713 28.112 11.236 43.016 18.923 43.237 20.12 58.604 21.175 72.163.291 3.739.592 7.605 1.224 11.835 2.386 15.961 9.699 31.011 20.592 42.379 12.945 13.509 30.088 20.967 49.574 21.568.103.003.206.005.309.005s.206-.001.309-.005c19.487-.602 36.629-8.06 49.575-21.568 10.894-11.368 18.207-26.418 20.593-42.379.632-4.229.933-8.095 1.224-11.834 1.055-13.559 2.251-28.926 21.175-72.164 6.522-14.903 9.846-29.249 11.235-43.016 23.248 5.294 42.673-7.609 43.633-8.262 2.888-1.961 4.544-5.286 4.369-8.772-1.074-21.501-15.517-55.102-50.404-67.238 14.854-41.852 46.262-45.863 79.389-50.088 35.107-4.478 74.902-9.553 74.902-70.367 0-6.928-3.357-12.36-8.98-14.533zm-348.191 158.077c-1.681 12.826-3.454 26.364-3.726 40.592-10.623 3.806-20.662.967-26.477-1.544 2.655-13.711 12.022-31.681 30.428-40.777-.074.573-.15 1.149-.225 1.729zm101.171 195.4c-5.295 0-11.815-3.354-15.504-7.975-2.561-3.208-3.486-6.48-2.749-9.724.191-.842 2.353-2.801 18.253-2.801s18.062 1.959 18.253 2.801c.737 3.244-.188 6.515-2.749 9.723-3.689 4.622-10.209 7.976-15.504 7.976zm74.552-99.222c-20.279 46.335-21.614 63.493-22.793 78.631-.275 3.548-.536 6.899-1.064 10.43-2.986 19.978-16.612 40.43-40.694 45.657v-16.981c8.097-2.343 15.802-7.332 21.136-14.013 6.36-7.969 8.712-17.427 6.619-26.632-4.174-18.369-26.02-18.369-37.755-18.369-11.736 0-33.582 0-37.756 18.369-2.092 9.205.26 18.664 6.622 26.633 5.333 6.681 13.037 11.67 21.134 14.012v16.981c-24.082-5.227-37.709-25.679-40.695-45.657-.528-3.53-.789-6.882-1.064-10.43-1.178-15.139-2.514-32.297-22.792-78.63-14.66-33.495-10.659-64.041-6.789-93.581.384-2.934.757-5.787 1.108-8.607 28.727-.61 53.201-11.877 68.088-31.644.334-.443.612-.916.864-1.399h22.562c.252.484.53.957.864 1.4 14.888 19.768 39.359 31.033 68.088 31.643.351 2.82.724 5.674 1.108 8.608 3.867 29.54 7.868 60.085-6.791 93.579zm56.821-57.128c-5.808 2.508-15.851 5.348-26.478 1.542-.271-14.225-2.044-27.766-3.725-40.59-.076-.58-.151-1.157-.227-1.731 18.408 9.096 27.776 27.067 30.43 40.779zm89.165-142.882c-10.218 6.765-25.643 8.732-41.973 10.814-35.248 4.495-78.775 10.046-96.992 67.031-20.891-.247-38.705-7.276-50.24-19.839 2.712-8.054 5.708-15.239 8.951-21.667 6.824 4.806 14.994 9.111 20.289 10.435.814.204 1.63.301 2.434.301 4.48 0 8.558-3.033 9.693-7.577 1.34-5.358-1.918-10.787-7.275-12.127-2.383-.596-9.182-4.083-14.678-8.122 5.631-7.552 11.766-13.543 18.296-18.282 3.154 5.353 7.33 9.734 10.813 12.83 1.905 1.693 4.276 2.526 6.64 2.526 2.757 0 5.502-1.134 7.479-3.356 3.669-4.128 3.297-10.448-.831-14.118-2.761-2.454-5.008-5.044-6.548-7.501 22.53-8.944 48.077-8.057 73.207-7.181 28.376.988 55.411 1.932 75.467-11.704-2.249 17.18-9.24 23.901-14.732 27.537z"/><path d="m223.507 284.402h-.007c-5.523 0-9.997 4.477-9.997 10s4.481 10 10.004 10 10-4.477 10-10-4.477-10-10-10z"/><path d="m288.5 284.402h-.008c-5.522 0-9.996 4.477-9.996 10s4.481 10 10.004 10 10-4.477 10-10-4.478-10-10-10z"/><path d="m120.206 132.37c0-5.523-4.477-10-10-10h-.007c-5.523 0-9.996 4.477-9.996 10s4.48 10 10.003 10 10-4.477 10-10z"/></g></g></svg>