<svg id="Layer_1" enable-background="new 0 0 512 512" height="512" viewBox="0 0 512 512" width="512" xmlns="http://www.w3.org/2000/svg"><g><g clip-rule="evenodd" fill-rule="evenodd"><path d="m216.639 94.837s-16.056 33.375-4.906 53.625l14.718-7.5s12.488 31.125 29.437 48.375c0 0 28.99-33.75 26.761-64.5l19.179 7.125c5.448-14.769 7.024-27.815 5.746-38.904-6.065-52.605-76.381-61.144-102.415-.366-.038.09-.077.18-.115.27z" fill="#ff9171"/><path d="m316.497 407.174.583-.078c70.464-38.916 26.563-67.6 26.563-158.149 21.317-17.484 28.746-36.501 19.702-68.401-19.472-68.681 78.179-91.311-6.137-170.544l-32.3 94.167c-4.637-4.404-10.551-8.107-17.334-11.11 1.278 11.089-.298 24.136-5.746 38.904l-19.179-7.125c2.23 30.75-26.761 64.5-26.761 64.5-16.948-17.25-29.437-48.375-29.437-48.375l-14.718 7.5c-11.15-20.25 4.906-53.625 4.906-53.625l-11.596-1.875c.038-.09.077-.18.115-.27-7.136 3.066-13.348 6.891-18.176 11.476l-32.3-94.167c-84.316 79.234 13.334 101.864-6.137 170.544-9.044 31.9-1.615 50.917 19.702 68.401 0 90.511-43.865 119.209 26.475 158.101l.659.354c-.475 9.385-1.639 17.451-4.482 23.941-9.265 21.149-21.69 70.657 65.046 70.657s74.31-49.508 65.045-70.659c-2.866-6.542-4.026-14.685-4.493-24.167z" fill="#ffda8f"/></g><g><path d="m364.055 2.714c-2.474-2.325-5.958-3.238-9.254-2.419-3.295.817-5.951 3.25-7.053 6.461l-27.898 81.336c-1.024-.595-2.083-1.171-3.162-1.734-4.186-21.089-17.739-35.554-34.139-42.058-15.024-5.958-32.503-5.2-47.958 2.079-15.753 7.42-28.478 20.784-37.002 38.786-1.927.93-3.783 1.903-5.548 2.929l-27.899-81.338c-1.102-3.211-3.757-5.645-7.053-6.461-3.295-.818-6.78.094-9.254 2.418-34.443 32.368-44.805 60.514-33.595 91.264 1.892 5.188 7.631 7.861 12.82 5.97 5.189-1.892 7.862-7.631 5.97-12.82-5.354-14.688-6.57-31.966 17.435-58.604l27.059 78.889c1.104 3.22 3.771 5.657 7.078 6.468.789.193 1.587.288 2.38.288 2.533 0 5.006-.963 6.887-2.749 2.236-2.123 4.933-4.101 8.041-5.922-4.023 13.275-7.269 32.656 1.064 47.789 2.604 4.728 8.49 6.535 13.3 4.086l5.333-2.717c5.335 11.209 15.083 29.409 27.149 41.69 1.883 1.917 4.455 2.992 7.133 2.992.111 0 .223-.002.335-.005 2.797-.094 5.427-1.355 7.251-3.479 1.108-1.29 23.536-27.716 28.379-56.929l6.493 2.412c2.49.925 5.246.822 7.659-.288 2.414-1.109 4.287-3.133 5.206-5.625 3.221-8.732 5.204-16.938 6.154-24.596.219.198.447.392.657.592 2.47 2.345 5.963 3.273 9.267 2.461 3.307-.811 5.974-3.248 7.078-6.468l27.071-78.923c31.69 34.894 21.078 54.326 6.89 80.291-11.024 20.176-23.52 43.044-14.604 74.492 7.457 26.303 3.006 42.007-16.423 57.942-2.316 1.899-3.658 4.737-3.658 7.732 0 30.597 4.847 54.363 8.742 73.459 6.872 33.694 10 49.067-16.196 67.376-.001-1.269-.001-2.547 0-3.844l.001-38.837c0-5.523-4.477-10-10-10s-10 4.477-10 10l-.001 38.824c-.013 19.582-.024 36.494 5.643 49.43 4.03 9.2 9.604 26.449 1.653 38.611-7.716 11.798-27.612 18.035-57.541 18.035-29.93 0-49.826-6.237-57.539-18.036-7.95-12.162-2.376-29.411 1.654-38.61 5.667-12.937 5.656-29.848 5.643-49.43l-.001-38.824c0-5.523-4.477-10-10-10s-10 4.477-10 10l.001 38.837c.001 1.297.001 2.575 0 3.844-26.197-18.308-23.071-33.672-16.197-67.375 3.895-19.097 8.742-42.863 8.742-73.459 0-2.995-1.342-5.833-3.658-7.732-19.429-15.935-23.88-31.639-16.423-57.941.512-1.805.972-3.703 1.407-5.802 1.121-5.408-2.355-10.701-7.763-11.821-5.41-1.121-10.7 2.355-11.821 7.763-.336 1.625-.685 3.064-1.065 4.404-9.195 32.436-3.443 55.348 19.284 75.695-.456 26.441-4.784 47.662-8.299 64.897-7.756 38.031-13.428 65.844 35.032 94.561-.559 5.65-1.523 10.53-3.2 14.359-9.758 22.276-9.785 42.724-.075 57.579 11.749 17.976 36.741 27.091 74.278 27.091s62.528-9.115 74.279-27.092c9.71-14.854 9.684-35.303-.075-57.579-1.677-3.829-2.641-8.71-3.201-14.36 48.457-28.719 42.787-56.534 35.032-94.56-3.515-17.235-7.843-38.456-8.299-64.897 22.727-20.347 28.479-43.259 19.284-75.695-6.685-23.58 2.834-41.001 12.913-59.447 16.101-29.468 34.351-62.868-21.823-115.656zm-68.578 116.221-9.345-3.472c-3.188-1.185-6.762-.667-9.484 1.375s-4.218 5.328-3.972 8.722c1.251 17.255-9.604 36.486-17.236 47.693-11.477-15.738-19.611-35.776-19.707-36.015-1.045-2.606-3.139-4.652-5.768-5.639-1.135-.426-2.326-.637-3.513-.637-1.562 0-3.12.366-4.541 1.09l-4.031 2.054c-1.042-12.751 4.77-28.649 7.77-34.933 1.368-2.843 1.314-6.166-.146-8.962-1.146-2.195-3.051-3.865-5.324-4.725 14.793-23.344 37.749-29.434 54.996-22.594 15.227 6.038 28.662 24.175 20.301 56.043z"/><path d="m228.84 436.835c-5.459-.871-10.579 2.856-11.442 8.311-2.588 16.321 5.367 23.577 12.586 28.075 1.646 1.025 3.473 1.514 5.279 1.514 3.338 0 6.602-1.671 8.497-4.713 2.921-4.688 1.488-10.855-3.199-13.775-3.52-2.193-4.252-2.65-3.41-7.968.865-5.456-2.856-10.579-8.311-11.444z"/><path d="m271.329 456.246c-4.688 2.92-6.12 9.088-3.199 13.775 1.896 3.042 5.158 4.713 8.497 4.713 1.806 0 3.634-.489 5.279-1.514 7.22-4.498 15.175-11.754 12.585-28.076-.866-5.454-5.984-9.179-11.443-8.31-5.455.865-9.175 5.989-8.31 11.443.843 5.319.111 5.776-3.409 7.969z"/><path d="m204.948 221.63c5.523 0 10-4.477 10-10s-4.477-10-10-10h-.007c-5.523 0-9.997 4.477-9.997 10s4.481 10 10.004 10z"/><path d="m316.949 211.63c0-5.523-4.477-10-10-10h-.007c-5.523 0-9.997 4.477-9.997 10s4.481 10 10.004 10 10-4.477 10-10z"/><path d="m143.664 140.858c5.523 0 10-4.477 10-10s-4.477-10-10-10h-.007c-5.523 0-9.996 4.477-9.996 10s4.48 10 10.003 10z"/></g></g></svg>