<svg id="Layer_1" enable-background="new 0 0 512.019 512.019" height="512" viewBox="0 0 512.019 512.019" width="512" xmlns="http://www.w3.org/2000/svg"><g><g clip-rule="evenodd" fill-rule="evenodd"><path d="m91.435 190.451c11.168-29.065 25.099-50.112 28.612-56.069-36.055-35.187-76.636-39.23-86.193-39.664s-31.526 2.306-21.1 30.758c29.063 12.376 60.1 33.302 78.681 64.975z" fill="#ff9171"/><path d="m91.435 190.451c-18.581-31.672-49.618-52.598-78.681-64.975 10.426 28.452-24.731 105.771 63.869 144.866-1.025-29.292 6.041-57.064 14.812-79.891z" fill="#ffda8f"/><path d="m91.435 190.451c-8.771 22.827-15.837 50.6-14.812 79.892 1.141 32.625 12.32 67.134 42.359 98.793 17.785 18.744 26.9 21.532 47.046 43.607 19.466 21.329 37.535 50.469 89.981 50.469s70.515-29.14 89.981-50.469c20.146-22.075 29.261-24.863 47.046-43.607 30.04-31.659 41.218-66.168 42.36-98.793 1.025-29.292-6.042-57.065-14.813-79.892-11.168-29.065-25.099-50.112-28.612-56.069-9.991-16.941-16.073-46.913-36.923-60.814-20.851-13.901-59.945-24.76-99.039-24.76s-78.189 10.859-99.039 24.76c-20.851 13.9-26.932 43.873-36.923 60.814-3.513 5.957-17.444 27.004-28.612 56.069zm87.214 127.178c4.97-21.106 4.489-38.71-23.636-66.835-34.751-34.751-23.674-65.375 7.819-96.868s49.954 11.294 93.177 11.294 61.684-42.787 93.177-11.294 42.57 62.117 7.819 96.868c-28.125 28.125-28.606 45.729-23.636 66.835 11.653 49.498-31.946 97.362-77.36 97.362s-89.012-47.864-77.36-97.362z" fill="#ff9171"/><path d="m162.832 153.926c-31.493 31.493-42.57 62.117-7.819 96.868 28.125 28.125 28.605 45.729 23.636 66.835-11.653 49.498 31.946 97.362 77.36 97.362s89.013-47.864 77.36-97.362c-4.97-21.106-4.489-38.71 23.636-66.835 34.751-34.751 23.674-65.375-7.819-96.868s-49.954 11.294-93.177 11.294c-43.222.001-61.683-42.787-93.177-11.294z" fill="#fff"/><path d="m391.972 134.382c3.513 5.957 17.444 27.004 28.612 56.069 18.581-31.672 49.618-52.598 78.681-64.975 10.426-28.452-11.544-31.193-21.1-30.758-9.557.434-50.138 4.477-86.193 39.664z" fill="#ff9171"/><path d="m499.266 125.476c-29.064 12.376-60.1 33.302-78.681 64.975 8.771 22.827 15.837 50.6 14.813 79.892 88.599-39.096 53.442-116.415 63.868-144.867z" fill="#ffda8f"/></g><g><path d="m387.83 199.673c-2.521-17.017-12.554-33.8-31.571-52.817-23.867-23.867-44.041-13.249-61.838-3.88-11.438 6.02-23.266 12.246-38.411 12.246-15.146 0-26.972-6.226-38.41-12.246-17.798-9.368-37.97-19.987-61.838 3.88-19.018 19.018-29.05 35.8-31.571 52.817-2.95 19.903 5.041 39.481 23.752 58.193 25.927 25.926 25.047 40.174 20.974 57.472-5.947 25.265.539 52.254 17.796 74.046 17.657 22.296 43.563 35.607 69.298 35.607s51.642-13.312 69.299-35.608c17.257-21.792 23.743-48.781 17.795-74.046-4.072-17.298-4.952-31.546 20.975-57.472 18.709-18.711 26.7-38.29 23.75-58.192zm-64.195 120.248c4.54 19.281-.565 40.074-14.007 57.046-13.688 17.286-34.234 28.024-53.619 28.024-19.384 0-39.93-10.738-53.618-28.024-13.441-16.973-18.547-37.766-14.008-57.046 6.023-25.58 3.651-46.248-26.299-76.198-14.186-14.185-20.109-27.635-18.11-41.118 1.835-12.385 10.316-25.995 25.93-41.607 6.17-6.17 11.153-8.644 16.394-8.644 6.183 0 12.722 3.442 21.986 8.319 12.313 6.481 27.639 14.547 47.726 14.547 20.088 0 35.412-8.066 47.727-14.548 17.121-9.011 24.935-13.122 38.38.325 15.613 15.612 24.095 29.222 25.93 41.607 1.999 13.483-3.925 26.933-18.11 41.118-29.952 29.95-32.324 50.619-26.302 76.199z"/><path d="m507.114 96.257c-8.237-11.237-23.308-11.805-29.402-11.529-11.001.5-47.292 4.456-82.568 33.418-.825-1.903-1.656-3.868-2.502-5.875-6.694-15.895-15.027-35.677-32.046-47.023-23.721-15.814-65.751-26.439-104.587-26.439-38.835 0-80.865 10.625-104.586 26.439-17.019 11.346-25.352 31.128-32.046 47.023-.846 2.008-1.677 3.973-2.502 5.877-35.281-28.965-71.581-32.921-82.567-33.42-6.104-.276-21.166.293-29.402 11.529-5.976 8.153-6.495 19.142-1.542 32.66 2.067 5.641 1.667 16.128 1.243 27.231-.694 18.195-1.559 40.839 6.567 63.056 9.151 25.019 27.437 43.931 55.805 57.687.667 9.189 2.08 18.169 4.256 26.919 1.332 5.359 6.763 8.621 12.117 7.291 5.36-1.333 8.624-6.758 7.291-12.118-11.468-46.112.668-98.706 36.071-156.319.812-1.321 1.47-2.394 1.947-3.202 3.375-5.725 6.179-12.381 9.147-19.427 5.949-14.125 12.693-30.135 24.708-38.146 20.384-13.589 58.829-23.08 93.492-23.08s73.109 9.491 93.493 23.08c12.015 8.011 18.759 24.021 24.708 38.146 2.969 7.046 5.771 13.703 9.148 19.428.478.81 1.139 1.887 1.953 3.213 37.448 60.93 67.928 148.484.472 219.577-7.824 8.246-13.843 13.207-20.215 18.459-7.708 6.354-15.68 12.925-26.965 25.29-2.431 2.664-4.858 5.466-7.207 8.175-16.629 19.19-33.825 39.035-75.388 39.035-41.562 0-58.758-19.844-75.387-39.035-2.348-2.709-4.775-5.511-7.207-8.175-11.285-12.365-19.257-18.936-26.966-25.291-4.105-3.383-7.982-6.58-12.315-10.616-4.04-3.765-10.368-3.542-14.133.5s-3.541 10.369.5 14.133c4.776 4.451 9.072 7.992 13.227 11.417 7.501 6.183 14.586 12.022 24.914 23.34 2.259 2.474 4.496 5.057 6.865 7.791 17.735 20.466 39.807 45.937 90.502 45.937 50.696 0 72.768-25.471 90.503-45.937 2.369-2.734 4.606-5.316 6.865-7.791 10.328-11.317 17.413-17.157 24.913-23.339 6.556-5.404 13.335-10.992 22.001-20.125 21.276-22.423 35.215-48.025 41.429-76.096 1.659-7.495 2.76-15.182 3.324-23.031 28.343-13.745 46.621-32.639 55.78-57.629 8.149-22.236 7.284-44.902 6.589-63.114-.424-11.103-.824-21.591 1.243-27.232 4.955-13.52 4.435-24.508-1.54-32.662zm-486.076 11.823c1.927-2.631 7.591-3.589 12.362-3.373 6.891.313 41.424 3.319 73.833 31.481-4.48 7.396-11.187 18.933-17.886 33.515-20.206-25.732-46.96-41.893-68.441-51.569-1.235-4.652-1.212-8.222.132-10.054zm3.554 48.83c.195-5.107.38-9.954.358-14.51 19.236 10.317 40.59 26.02 55.415 49.146-.487 1.341-.97 2.692-1.443 4.064-6.962 20.182-10.988 39.745-12.082 58.549-44.945-26.366-43.464-65.38-42.248-97.249zm454.028-52.203c4.762-.213 10.434.743 12.362 3.373 1.343 1.832 1.366 5.402.132 10.054-21.487 9.679-48.252 25.847-68.461 51.594-6.753-14.692-13.503-26.325-17.867-33.54 32.409-28.162 66.931-31.167 73.834-31.481zm-33.446 149.454c-.532-9.149-1.749-18.477-3.664-27.953-2.482-12.279-5.965-23.933-9.866-34.646 14.825-23.135 36.185-38.842 55.425-49.162-.022 4.556.163 9.403.358 14.511 1.217 31.872 2.697 70.885-42.253 97.25z"/><path d="m215.513 227.425h-.007c-5.522 0-9.997 4.477-9.997 10s4.481 10 10.004 10 10-4.477 10-10-4.477-10-10-10z"/><path d="m296.513 227.425h-.007c-5.522 0-9.997 4.477-9.997 10s4.481 10 10.004 10 10-4.477 10-10-4.477-10-10-10z"/><path d="m283.579 279.055c-4.763-2.799-10.89-1.21-13.689 3.551-2.098 3.567-8.177 8.624-13.88 11.012-5.702-2.389-11.782-7.446-13.881-11.013-2.8-4.76-8.928-6.35-13.689-3.549-4.761 2.8-6.35 8.93-3.549 13.69 4.158 7.068 12.491 14.104 21.119 18.269v16.317c0 5.523 4.478 10 10 10s10-4.477 10-10v-16.317c8.629-4.165 16.963-11.201 21.12-18.27 2.799-4.761 1.209-10.89-3.551-13.69z"/><path d="m98.527 332.83h-.007c-5.522 0-9.996 4.477-9.996 10s4.48 10 10.003 10 10-4.477 10-10-4.478-10-10-10z"/></g></g></svg>