<svg id="Layer_1" enable-background="new 0 0 512 512" height="512" viewBox="0 0 512 512" width="512" xmlns="http://www.w3.org/2000/svg"><g><g clip-rule="evenodd" fill-rule="evenodd"><path d="m126.47 159.739c5.785-57.847-19.543-137.559-83.088-127.787-38.443 40.355-43.598 126.483 62.798 173.384 6.21-15.49 13.048-30.769 20.29-45.597z" fill="#f1c6dd"/><path d="m468.618 31.952c-63.545-9.772-88.873 69.94-83.088 127.787 7.242 14.829 14.08 30.107 20.29 45.597 106.396-46.901 101.242-133.029 62.798-173.384z" fill="#f1c6dd"/><path d="m217.435 372.616c0-11.836 10.016-23.691 38.565-23.691s38.565 11.855 38.565 23.691-17.266 34.156-38.565 34.156-38.565-22.32-38.565-34.156zm-174.053-340.664c63.545-9.772 88.873 69.94 83.088 127.787-7.242 14.829-14.08 30.107-20.29 45.597-56.009 139.713-60.907 296.664 149.82 296.664s205.829-156.951 149.819-296.664c-6.21-15.49-13.048-30.768-20.29-45.597-5.785-57.847 19.543-137.559 83.089-127.787-36.188-37.989-101.875-35.417-131.777 78.617-20.667-11.933-55.437-18.319-80.841-18.319-25.405 0-60.174 6.386-80.842 18.318-29.901-114.033-95.588-116.605-131.776-78.616z" fill="#fff"/><path d="m256 348.925c-28.549 0-38.565 11.855-38.565 23.691s17.266 34.156 38.565 34.156 38.565-22.321 38.565-34.156c0-11.836-10.016-23.691-38.565-23.691z" fill="#8690af"/></g><g><path d="m501.809 75.79c-3.951-20.081-13.83-38.774-27.815-52.638-14.475-14.349-32.383-22.56-50.425-23.121-20.083-.616-39.226 8.022-55.395 25.004-15.692 16.48-28.35 40.426-37.705 71.294-22.974-9.632-53.26-14.079-74.469-14.079s-51.495 4.447-74.469 14.08c-9.352-30.855-22.004-54.797-37.688-71.276-16.161-16.982-35.315-25.635-55.373-25.024-18.03.55-35.932 8.742-50.408 23.067-13.984 13.839-23.873 32.508-27.847 52.568-5.012 25.31-.601 50.848 12.759 73.854 14.316 24.653 38.006 45.124 70.474 60.932-12.761 33.312-21.725 65.341-26.378 94.561-8.862 55.662-2.505 101.257 18.893 135.521 29.615 47.423 86.824 71.467 170.037 71.467s140.422-24.044 170.037-71.465c21.398-34.264 27.754-79.86 18.893-135.521-4.652-29.221-13.617-61.251-26.378-94.563 32.375-15.762 56.026-36.163 70.356-60.728 13.428-23.019 17.889-48.584 12.901-73.933zm-92.736 354.151c-25.717 41.179-77.218 62.059-153.073 62.059s-127.356-20.88-153.073-62.059c-34.695-55.557-22.839-152.442 32.529-265.814.52-1.065.847-2.214.965-3.393 1.434-14.345 1.039-29.847-1.144-44.83-.796-5.465-5.873-9.25-11.337-8.454-5.465.796-9.25 5.872-8.454 11.337 1.862 12.783 2.272 25.952 1.198 38.208-5.67 11.683-10.926 23.31-15.754 34.82-53.362-26.557-79.852-68.049-71.095-112.265 2.91-14.694 9.551-27.9 18.411-38.126 11.243-1.102 21.452 1.131 30.374 6.678 1.644 1.022 3.468 1.509 5.271 1.509 3.341 0 6.607-1.675 8.501-4.721 2.917-4.69 1.479-10.856-3.212-13.772-5.326-3.312-10.938-5.798-16.808-7.465 5.388-2.187 11.008-3.459 16.707-3.633 32.763-1.041 60.632 32.929 76.406 93.084.791 3.016 2.943 5.491 5.821 6.692 2.877 1.201 6.15.991 8.852-.568 19.307-11.146 52.767-16.979 75.841-16.979s56.535 5.832 75.841 16.979c2.7 1.56 5.973 1.77 8.852.568 2.878-1.201 5.03-3.676 5.821-6.692 15.78-60.176 43.677-94.121 76.434-93.083 5.713.178 11.345 1.458 16.743 3.656-10.491 2.963-20.131 8.507-28.597 16.542-30.01 28.481-39.461 81.049-35.515 120.513.118 1.179.445 2.328.965 3.393 55.369 113.374 67.226 210.259 32.53 265.816zm2.004-238.109c-4.83-11.516-10.088-23.147-15.761-34.836-2.912-33.353 5.012-78.985 29.545-102.269 10.863-10.309 23.935-14.77 38.893-13.307 8.881 10.249 15.531 23.494 18.431 38.231 8.697 44.194-17.78 85.641-71.108 112.181z"/><path d="m304.565 372.616c0-16.287-12.758-33.691-48.565-33.691s-48.565 17.404-48.565 33.691c0 15.207 16.55 37.469 38.565 42.915v18.155c-10.247 5.559-19.868 9.657-28.655 12.187-5.307 1.528-8.371 7.069-6.842 12.376 1.528 5.307 7.068 8.37 12.376 6.842 10.304-2.967 21.423-7.692 33.121-14.072 11.698 6.379 22.818 11.105 33.121 14.072.924.267 1.855.393 2.772.393 4.344 0 8.343-2.853 9.604-7.235 1.528-5.307-1.535-10.849-6.842-12.376-8.786-2.53-18.408-6.628-28.655-12.188v-18.154c22.015-5.446 38.565-27.707 38.565-42.915zm-77.13 0c0-8.573 10.679-13.691 28.565-13.691s28.565 5.118 28.565 13.691c0 6.617-12.975 24.156-28.565 24.156-15.591 0-28.565-17.539-28.565-24.156z"/><path d="m186.891 305.793c5.523 0 10-4.477 10-10s-4.477-10-10-10h-.008c-5.523 0-9.996 4.477-9.996 10s4.481 10 10.004 10z"/><path d="m325.109 305.793h.008c5.523 0 9.996-4.477 9.996-10s-4.481-10-10.004-10-10 4.477-10 10 4.477 10 10 10z"/><path d="m147.171 398.978c13.382-.963 23.47 1.318 34.83 7.877 1.575.909 3.294 1.342 4.991 1.342 3.456 0 6.817-1.794 8.669-5.002 2.762-4.783 1.123-10.898-3.66-13.66-14.738-8.51-29.008-11.748-46.269-10.505-5.508.397-9.652 5.185-9.255 10.693.398 5.508 5.181 9.647 10.694 9.255z"/><path d="m192.212 422.672c-17.019 0-30.997 4.329-45.322 14.037-4.572 3.098-5.767 9.316-2.668 13.888 1.934 2.854 5.082 4.391 8.288 4.391 1.93 0 3.882-.558 5.601-1.723 11.104-7.524 20.984-10.593 34.103-10.593 5.523 0 10-4.477 10-10s-4.479-10-10.002-10z"/><path d="m366.268 379.029c-17.261-1.245-31.53 1.995-46.268 10.505-4.783 2.762-6.422 8.877-3.66 13.66 1.853 3.208 5.213 5.002 8.669 5.002 1.696 0 3.417-.433 4.991-1.342 11.361-6.559 21.452-8.842 34.83-7.877 5.503.397 10.297-3.746 10.693-9.255.397-5.508-3.747-10.296-9.255-10.693z"/><path d="m365.11 436.709c-14.326-9.708-28.303-14.037-45.322-14.037-5.523 0-10 4.477-10 10s4.477 10 10 10c13.119 0 22.999 3.069 34.102 10.593 1.719 1.165 3.67 1.723 5.601 1.723 3.206 0 6.354-1.538 8.288-4.391 3.098-4.572 1.903-10.79-2.669-13.888z"/><path d="m112.753 64.146h-.007c-5.523 0-9.996 4.477-9.996 10s4.48 10 10.003 10 10-4.477 10-10-4.478-10-10-10z"/></g></g></svg>