<svg id="Layer_1" enable-background="new 0 0 512 512" height="512" viewBox="0 0 512 512" width="512" xmlns="http://www.w3.org/2000/svg"><g><g clip-rule="evenodd" fill-rule="evenodd"><g fill="#ffda8f"><path d="m10 106.937c0 32.233 21.542 91.954 117.34 103.336 1.936-29.745 14.636-51.25 34.371-65.843-45.905-3.185-95.794-22.794-95.794-84.743 0 0-.25-20-16.75-20s-39.167 32.75-39.167 67.25z"/><path d="m161.712 144.43c-19.736 14.593-32.435 36.098-34.371 65.843.002 0 .004 0 .006.001-.002.002-.004.005-.006.007-.171 2.632-.258 5.329-.258 8.091 0 17.78 1.225 31.902 3.351 43.608 7.008 38.606 23.801 50.946 38.694 81.635 4.663 9.609 7.268 18.712 9.864 26.957 5.856-13.942 19.671-23.796 35.676-23.796h41.332 41.333c16.005 0 29.82 9.855 35.675 23.797 2.597-8.246 5.203-17.349 9.866-26.957 14.893-30.689 31.686-43.029 38.694-81.635 2.125-11.706 3.35-25.828 3.35-43.608 0-2.762-.087-5.459-.258-8.091-.002-.002-.004-.005-.006-.007.002 0 .004-.001.006-.001-1.936-29.745-14.636-51.25-34.372-65.843-23.532-17.401-57.068-24.975-94.288-24.975-37.22-.001-70.756 7.573-94.288 24.974z"/><path d="m350.301 144.429c19.37 14.289 32.387 35.547 34.359 65.844 95.798-11.381 117.34-71.103 117.34-103.336 0-34.5-22.668-67.25-39.167-67.25-16.5 0-16.75 20-16.75 20-.001 61.943-49.881 81.555-95.782 84.742z"/></g><path d="m297.333 346.776h-82.666c-16.006 0-29.82 9.855-35.676 23.796-1.925 4.583-2.991 9.609-2.991 14.87 0 17.673 8.108 30.207 19.73 36.974 17.357 10.105 42.549 7.345 60.27-10.376 29.587 29.587 80 17.469 80-26.598 0-5.262-1.065-10.287-2.99-14.87-5.857-13.942-19.672-23.796-35.677-23.796z" fill="#ff9171"/><path d="m316.17 422.474c-17.353 10.037-42.483 7.254-60.17-10.433-17.721 17.721-42.913 20.481-60.27 10.376-.337 31.416 31.951 49.896 60.27 49.896 33.287 0 60.272-22.162 60.272-49.5z" fill="#ffda8f"/><path d="m127.34 210.273c-16.438-1.953-30.689-5.329-43.021-9.746l-.008.007c-24.144 33.903-41.114 123.988 46.121 61.446-2.125-11.706-3.351-25.828-3.351-43.608 0-2.762.087-5.459.258-8.091.001-.003.001-.005.001-.008z" fill="#ff9171"/><path d="m384.659 210.266c16.438-1.953 30.689-5.329 43.021-9.745l.008.007c24.144 33.903 41.114 123.988-46.121 61.446 2.125-11.706 3.351-25.828 3.351-43.608 0-2.762-.087-5.459-.258-8.091-.001-.004-.001-.007-.001-.009z" fill="#ff9171"/></g><g><path d="m497.109 55.116c-9.992-16.16-22.486-25.428-34.276-25.428-19.352 0-26.599 17.866-26.75 29.875-.001.042-.001.083-.001.125 0 55.224-44.467 71.099-82.971 74.488-.114-.078-.223-.159-.338-.237-23.606-16.018-57.07-24.484-96.773-24.484s-73.167 8.466-96.774 24.484c-.111.075-.217.154-.328.23-10.056-.892-19.473-2.569-28.021-5.013-5.312-1.519-10.846 1.556-12.364 6.866s1.556 10.846 6.866 12.364c4.512 1.29 9.226 2.382 14.099 3.295-10.979 13.102-18.035 29.014-20.914 47.242-72.507-12.07-98.564-56.428-98.564-91.985 0-31.863 20.946-57.25 29.167-57.25 6.114 0 6.697 8.417 6.75 10.101.006 6.816.585 13.425 1.724 19.646.994 5.432 6.202 9.033 11.637 8.037 5.433-.994 9.031-6.204 8.037-11.637-.927-5.066-1.397-10.499-1.397-16.146 0-.042 0-.083-.001-.125-.15-12.009-7.397-29.875-26.749-29.875-11.791 0-24.284 9.268-34.276 25.428-9.465 15.303-14.892 34.191-14.892 51.821 0 10.964 2.449 39.339 25.134 65.972 11.633 13.658 26.526 24.513 44.507 32.533-12.82 24.189-23.083 63.383-5.458 80.706 3.718 3.654 9.832 7.379 19.307 7.379 3.141 0 6.652-.41 10.566-1.367 8.698-2.127 18.57-6.668 29.944-13.794 5.365 18.814 13.232 31.218 21.353 44.011 4.907 7.73 9.981 15.724 14.776 25.604 3.732 7.691 6.06 15.121 8.298 22.31-1.568 4.772-2.427 9.862-2.427 15.151 0 17.857 7.293 33.007 19.985 42.494 1.469 15.556 9.743 29.494 23.662 39.596 12.942 9.393 29.837 14.78 46.353 14.78 18.117 0 35.308-5.794 48.404-16.315 12.581-10.106 20.144-23.507 21.596-38.05 12.701-9.486 20-24.641 20-42.505 0-5.289-.86-10.379-2.427-15.151 2.428-7.787 4.543-14.54 8.305-22.326 4.798-9.931 9.888-17.956 14.811-25.717 8.097-12.765 15.941-25.144 21.297-43.891 11.386 7.135 21.27 11.682 29.975 13.808 3.909.955 7.414 1.363 10.552 1.363 9.538 0 15.678-3.777 19.402-7.477 17.376-17.266 7.105-56.5-5.585-80.595 17.995-8.021 32.897-18.881 44.536-32.546 22.685-26.634 25.134-55.01 25.134-65.973 0-17.63-5.428-36.518-14.891-51.822zm-418.906 216.768c-2.782-2.734-4.924-11.396-1.804-26.806 2.234-11.033 6.816-23.172 12.163-32.578 6.103 1.865 12.489 3.465 19.156 4.795-3.182 3.566-6.404 7.204-9.535 10.851-3.598 4.19-3.117 10.504 1.074 14.101 1.887 1.62 4.203 2.413 6.509 2.413 2.815 0 5.614-1.183 7.592-3.486 1.377-1.603 2.783-3.213 4.197-4.821.419 7.698 1.108 14.664 2.03 21.003-24.404 16.569-37.514 18.331-41.382 14.528zm247.797 113.558c0 14.521-6.575 25.242-18.513 30.187-14.278 5.914-32.127 1.63-44.416-10.66-1.875-1.875-4.419-2.929-7.071-2.929s-5.196 1.054-7.071 2.929c-12.289 12.29-30.139 16.575-44.416 10.659-11.938-4.944-18.513-15.664-18.513-30.186 0-15.807 12.86-28.667 28.667-28.667h82.666c15.807.001 28.667 12.861 28.667 28.667zm-70 76.871c-18.785 0-38.855-9.18-46.771-24.765 15.924 2.463 33.015-1.973 46.771-12.3 11.27 8.461 24.778 12.972 38.05 12.971 2.859 0 5.706-.218 8.519-.643-7.522 14.453-25.687 24.737-46.569 24.737zm93.8-150.777c-5.227 8.24-10.631 16.76-15.931 27.729-1.657 3.43-3.034 6.668-4.244 9.81-8.599-7.644-19.909-12.299-32.292-12.299h-82.666c-12.386 0-23.7 4.658-32.299 12.306-1.227-3.192-2.616-6.476-4.245-9.833-5.292-10.904-10.676-19.387-15.884-27.59-14.056-22.143-25.158-39.632-25.158-93.287 0-77.366 74.506-88.917 118.918-88.917s118.918 11.552 118.918 88.917c.001 53.564-11.084 71.039-25.117 93.164zm84.018-39.672c-3.859 3.834-16.967 2.085-41.409-14.511.924-6.339 1.614-13.303 2.034-21.002 1.414 1.609 2.821 3.219 4.198 4.823 1.978 2.304 4.776 3.487 7.592 3.486 2.306 0 4.623-.793 6.509-2.413 4.19-3.597 4.671-9.911 1.074-14.101-3.131-3.648-6.353-7.285-9.535-10.851 6.676-1.331 13.069-2.933 19.179-4.801 11.999 20.965 17.867 51.908 10.358 59.37zm-40.382-72.942c-2.879-18.229-9.935-34.142-20.916-47.244 19.398-3.656 36.117-10.341 49.067-19.715 22.855-16.543 34.46-40.815 34.495-72.139.063-1.848.683-10.136 6.75-10.136 8.222 0 29.167 25.387 29.167 57.25.001 35.557-26.056 79.915-98.563 91.984z"/><path d="m213 253.014h-.007c-5.523 0-9.997 4.477-9.997 10s4.481 10 10.004 10 10-4.477 10-10-4.477-10-10-10z"/><path d="m299.007 253.014h-.007c-5.523 0-9.997 4.477-9.997 10s4.481 10 10.004 10 10-4.477 10-10-4.477-10-10-10z"/><path d="m218 377.512h-.007c-5.523 0-9.997 4.477-9.997 10s4.481 10 10.004 10 10-4.477 10-10-4.477-10-10-10z"/><path d="m294.007 377.512h-.007c-5.523 0-9.997 4.477-9.997 10s4.481 10 10.004 10 10-4.477 10-10-4.477-10-10-10z"/><path d="m88.506 127.427c5.523 0 10-4.477 10-10s-4.477-10-10-10h-.007c-5.523 0-9.997 4.477-9.997 10s4.481 10 10.004 10z"/></g></g></svg>