<svg id="Layer_1" enable-background="new 0 0 512.016 512.016" height="512" viewBox="0 0 512.016 512.016" width="512" xmlns="http://www.w3.org/2000/svg"><g><g clip-rule="evenodd" fill-rule="evenodd"><path d="m159.36 241.125c36.118-108.354-4.682-151.828-51.501-230.083-37.79 13.376 14.046 183.932 51.501 230.083z" fill="#f1c6dd"/><path d="m404.157 11.041c-46.82 78.255-87.619 121.73-51.501 230.083 37.455-46.15 89.291-216.706 51.501-230.083z" fill="#f1c6dd"/><path d="m256.008 490.605c53.844 38.124 97.316-27.423 131.427-76.917 34.111-49.495 1.338-64.209-34.779-172.563-36.118-108.354 4.682-151.828 51.501-230.083-37.79-13.377-112.366 107.35-123.043 181.139-8.984-1.86-18.648-2.891-25.106-2.891s-16.122 1.031-25.106 2.891c-10.677-73.79-85.253-194.517-123.043-181.14 46.82 78.255 87.619 121.73 51.501 230.083-36.117 108.354-68.891 123.068-34.779 172.563s77.583 115.042 131.427 76.918z" fill="#fff"/></g><g><path d="m195.718 316.659h-.007c-5.522 0-9.997 4.477-9.997 10s4.481 10 10.004 10 10-4.477 10-10-4.477-10-10-10z"/><path d="m363.832 242.956c15.585-21.531 33.069-60.98 46.419-105.089 7.313-24.159 23.356-83.763 14.438-115.38-3.83-13.577-11.465-18.845-17.195-20.873-9.4-3.328-20.016-1.505-31.558 5.415-19.955 11.962-43.514 40.186-64.634 77.435-18.773 33.108-32.455 67.577-38.308 96.176-6.553-.908-12.636-1.351-16.987-1.351s-10.434.443-16.986 1.351c-5.849-28.586-19.521-63.037-38.284-96.135-21.122-37.262-44.685-65.498-64.646-77.469-11.546-6.925-22.168-8.75-31.569-5.422-5.727 2.027-13.357 7.29-17.189 20.851-8.927 31.592 7.103 91.173 14.407 115.323 13.351 44.132 30.848 83.623 46.443 105.168-10.725 31.416-21.012 54.489-29.358 73.197-19.259 43.167-28.926 64.834-2.479 103.208l2.083 3.024c26.418 38.371 56.361 81.861 95.002 88.727 14.392 2.559 28.688-.33 42.576-8.585 10.621 6.313 21.479 9.488 32.439 9.488 3.371 0 6.752-.3 10.138-.902 38.641-6.867 68.584-50.356 95.002-88.727l2.083-3.024c26.447-38.375 16.78-60.042-2.479-103.209-8.345-18.708-18.632-41.781-29.358-73.197zm-7.69-25.059c-20.371-77.566 4.356-117.347 40.375-175.283 2.936-4.722 5.934-9.552 8.972-14.5 9.899 35.847-20.66 139.573-49.347 189.783zm23.059 190.115-2.088 3.032c-22.998 33.403-51.619 74.974-82.027 80.377-9.71 1.726-19.261-.309-29.078-6.214v-6.502c11.882-4.255 23.688-12.076 29.498-19.954 3.278-4.445 2.332-10.706-2.112-13.984-4.445-3.277-10.706-2.332-13.983 2.113-3.114 4.223-13.219 11.253-23.402 14.039-10.183-2.786-20.287-9.816-23.401-14.039-3.277-4.445-9.538-5.39-13.983-2.113-4.444 3.278-5.391 9.539-2.112 13.984 5.81 7.878 17.615 15.699 29.497 19.954v6.502c-9.819 5.904-19.372 7.937-29.077 6.214-30.408-5.403-59.029-46.975-82.027-80.377l-2.088-3.032c-20.076-29.13-14.432-41.784 4.274-83.71 8.962-20.088 20.115-45.087 31.758-80.015 9.855-29.568 14.542-55.66 14.326-79.768-.05-5.492-4.517-9.91-9.998-9.91-.03 0-.062 0-.092 0-5.522.049-9.959 4.566-9.91 10.089.147 16.36-2.254 33.898-7.304 53.186-28.676-50.215-59.233-153.961-49.344-189.77 3.032 4.938 6.025 9.76 8.955 14.473 8.878 14.281 17.264 27.77 24.355 40.922 1.808 3.352 5.252 5.256 8.811 5.256 1.603 0 3.229-.386 4.737-1.2 4.861-2.621 6.677-8.687 4.056-13.548-7.384-13.696-15.928-27.439-24.974-41.989-1.213-1.952-2.437-3.921-3.669-5.907 16.348 11.254 36.474 36.373 54.541 68.246 17.526 30.918 30.688 63.994 36.1 90.351-3.514 1.042-6.786 2.238-9.589 3.595-4.972 2.406-7.052 8.386-4.646 13.357 1.727 3.568 5.295 5.646 9.009 5.646 1.461 0 2.945-.322 4.349-1.001 8.18-3.958 26.847-7.028 37.447-7.028 10.602 0 29.269 3.07 37.448 7.028 1.403.679 2.887 1.001 4.349 1.001 3.714 0 7.282-2.079 9.009-5.646 2.405-4.972.325-10.952-4.646-13.357-2.804-1.357-6.075-2.553-9.59-3.595 5.414-26.369 18.588-59.464 36.123-90.39 18.061-31.853 38.177-56.956 54.517-68.206-1.237 1.993-2.466 3.971-3.684 5.931-19.979 32.135-37.232 59.888-45.54 92.497-9.084 35.657-6.168 73.704 9.176 119.736 11.643 34.928 22.796 59.927 31.758 80.015 18.702 41.928 24.347 54.581 4.271 83.711z"/><path d="m316.297 316.659c-5.522 0-10 4.477-10 10s4.478 10 10 10h.007c5.522 0 9.997-4.477 9.997-10s-4.481-10-10.004-10z"/><path d="m166.418 110.114h-.008c-5.522 0-9.996 4.477-9.996 10s4.481 10 10.004 10 10-4.477 10-10-4.477-10-10-10z"/></g></g></svg>