<svg id="Layer_1" enable-background="new 0 0 512.083 512.083" height="512" viewBox="0 0 512.083 512.083" width="512" xmlns="http://www.w3.org/2000/svg"><g><g clip-rule="evenodd" fill-rule="evenodd"><path d="m64.247 144.614c2.751-2.913 90.923-82.982-16.837-131.626-59.035 15.68 2.404 103.488 16.837 131.626z" fill="#ffda8f"/><path d="m464.674 12.987c-107.761 48.645-19.589 128.713-16.838 131.627 14.432-28.138 75.871-115.946 16.838-131.627z" fill="#ffda8f"/><path d="m300.113 366.271c.128-11.156-11.447-23.189-44.072-23.189s-44.2 12.033-44.072 23.189c.07 6.112 9.555 12.492 18.908 16.49 8.96 3.83 7.994 16.574 25.164 16.943 17.17-.369 16.203-13.112 25.164-16.943 9.353-3.997 18.838-10.378 18.908-16.49z" fill="#8690af"/><path d="m47.409 12.987c107.761 48.645 19.588 128.713 16.838 131.627-15.709 16.636-71.177 82.963-49.071 164.533l24.054-5.246s-.941 43.849 18.25 87.079c11.491 25.883 30.198 51.544 60.646 67.439l18.762-17.646s20.686 43.638 72.161 61.284l11.786-20.746s19.123 10.274 35.205 14.546c16.082-4.272 35.205-14.546 35.205-14.546l11.786 20.746c51.475-17.646 72.161-61.284 72.161-61.284l18.762 17.646c81.302-42.445 78.896-154.518 78.896-154.518l24.054 5.246c22.106-81.57-33.362-147.898-49.07-164.534-2.751-2.913-90.923-82.982 16.837-131.626-59.031-15.681-108.239 36.722-108.239 36.722-22.658-13.082-61.467-19.838-100.403-19.887-38.495-.049-77.115 6.457-100.377 19.887-.001 0-49.209-52.403-108.243-36.722zm208.632 386.717c-17.17-.369-16.203-13.112-25.164-16.943-9.353-3.998-18.838-10.378-18.908-16.49-.128-11.156 11.447-23.189 44.072-23.189s44.2 12.033 44.072 23.189c-.07 6.112-9.555 12.492-18.908 16.49-8.96 3.831-7.994 16.574-25.164 16.943z" fill="#ff9171"/></g><g><path d="m495.661 198.405c-11.49-25.376-26.52-44.765-35.658-55.25 1.408-2.507 3.016-5.301 4.747-8.31 17.725-30.812 44.511-77.374 31.749-108.02-4.878-11.714-14.694-19.614-29.176-23.481-.059-.016-.116-.031-.175-.046-52.793-13.968-97.277 20.425-112.481 34.222-23.322-11.031-59.134-17.571-97.944-17.696-.396-.001-.784-.002-1.179-.002-39.37 0-74.504 6.378-98.143 17.684-15.218-13.806-59.692-48.177-112.474-34.206-.054.014-.107.028-.16.042-14.486 3.867-24.304 11.766-29.183 23.483-12.761 30.645 14.025 77.208 31.749 108.019 1.731 3.01 3.338 5.803 4.748 8.311-9.14 10.487-24.168 29.875-35.659 55.25-17.276 38.152-20.943 76.291-10.897 113.358 1.394 5.143 6.578 8.29 11.783 7.155l12.316-2.686c.758 11.792 2.916 30.72 8.955 51.77 13.284 46.298 39.191 80.63 74.92 99.283 3.772 1.969 8.378 1.336 11.479-1.58l9.679-9.103c10.263 15.275 32.673 41.727 71.151 54.916 4.549 1.559 9.563-.339 11.938-4.52l7.103-12.501c7.435 3.53 18.477 8.331 28.626 11.027 1.683.446 3.453.446 5.134 0 10.15-2.696 21.192-7.497 28.628-11.027l7.103 12.501c1.817 3.199 5.179 5.062 8.696 5.062 1.079 0 2.173-.176 3.241-.542 38.477-13.189 60.888-39.641 71.15-54.916l9.678 9.103c3.102 2.916 7.707 3.55 11.479 1.581 35.729-18.653 61.638-52.985 74.921-99.283 6.04-21.05 8.196-39.978 8.955-51.77l12.315 2.686c5.21 1.136 10.39-2.011 11.783-7.155 10.045-37.068 6.379-75.207-10.897-113.359zm-30.259-174.732c6.416 2.305 10.564 5.872 12.634 10.84 8.968 21.537-16.786 66.307-30.623 90.359-.578 1.006-1.145 1.989-1.694 2.948-11.645-13.447-27.82-36.836-23.83-59.465 3.056-17.339 17.689-32.359 43.513-44.682zm-431.355 10.84c2.069-4.968 6.217-8.535 12.634-10.84 25.824 12.323 40.457 27.343 43.514 44.682 3.99 22.63-12.186 46.019-23.831 59.465-.551-.959-1.116-1.942-1.695-2.949-13.836-24.052-39.59-68.821-30.622-90.358zm455.382 262.768-6.86-1.496c-1.458-21.832-8.424-43.956-15.319-55.899-1.531-2.653-4.195-4.458-7.228-4.897-3.041-.44-6.1.537-8.32 2.647l-1.831 1.74c-3.58-11.607-9.287-27.713-17.191-42.928-2.546-4.9-8.579-6.812-13.484-4.264-4.9 2.546-6.81 8.583-4.264 13.484 13.131 25.277 19.933 54.39 19.999 54.677.805 3.5 3.424 6.299 6.862 7.335 3.442 1.035 7.169.147 9.771-2.325l3.65-3.468c4.012 11.27 7.637 26.903 7.637 42.015 0 .037.005.073.005.109 0 .032-.004.063-.004.095.004.222.28 18.585-4.708 42.653-3.336-12.252-7.588-22.973-11.718-30.126-1.532-2.653-4.195-4.458-7.228-4.897-3.043-.44-6.1.537-8.32 2.647l-4.133 3.927c-4.09-13.624-10.988-33.68-20.793-52.553-2.546-4.9-8.579-6.811-13.484-4.264-4.9 2.546-6.81 8.583-4.264 13.484 15.465 29.771 23.463 64.019 23.541 64.358.805 3.5 3.424 6.299 6.862 7.334 3.44 1.037 7.169.147 9.771-2.325l6.137-5.831c4.971 13.167 9.687 32.233 9.911 50.78-11.564 25.133-27.953 44.17-48.965 56.818l-7.898-7.428c7.611-15.962 11.574-34.094 11.574-45.255 0-3.064-1.404-5.959-3.812-7.855-2.164-1.705-4.926-2.43-7.622-2.042 2.044-9.458 4.185-21.946 4.75-34.655.245-5.517-4.028-10.189-9.546-10.435-5.502-.246-10.188 4.028-10.435 9.546-1.019 22.881-7.995 45.933-8.064 46.158-1.053 3.433-.185 7.167 2.275 9.783s6.136 3.713 9.625 2.872l1.147-.276c-1.906 8.915-5.477 19.81-10.927 29.249-.09.156-.163.317-.244.476-.037.073-.084.141-.12.215-.182.377-17.605 35.76-58.685 53.187l-7.545-13.279c-2.681-4.719-8.641-6.437-13.425-3.871-.171.092-16.292 8.699-30.475 12.963-14.183-4.264-30.304-12.872-30.472-12.962-4.787-2.571-10.745-.853-13.428 3.869l-7.544 13.279c-41.08-17.427-58.502-52.808-58.672-53.161-.04-.084-.091-.16-.133-.243-.081-.158-.153-.319-.243-.474-5.45-9.439-9.021-20.334-10.927-29.249l1.148.276c3.493.84 7.165-.256 9.625-2.872s3.328-6.35 2.275-9.783c-.07-.229-7.042-23.183-8.065-46.159-.245-5.517-4.906-9.781-10.435-9.545-5.518.246-9.791 4.917-9.545 10.435.566 12.708 2.707 25.197 4.751 34.655-2.699-.392-5.459.337-7.624 2.042-2.407 1.896-3.811 4.791-3.811 7.855 0 11.16 3.963 29.292 11.575 45.255l-7.898 7.428c-21.012-12.648-37.401-31.685-48.964-56.819.224-18.546 4.939-37.613 9.91-50.779l6.138 5.831c2.603 2.472 6.33 3.36 9.769 2.325 3.438-1.034 6.058-3.833 6.864-7.331.079-.342 8.077-34.591 23.542-64.361 2.546-4.901.637-10.938-4.264-13.484-4.901-2.547-10.938-.637-13.484 4.264-9.804 18.873-16.703 38.929-20.792 52.553l-4.133-3.927c-2.221-2.11-5.288-3.087-8.32-2.647-3.032.439-5.696 2.244-7.228 4.897-4.13 7.153-8.381 17.874-11.717 30.125-4.988-24.067-4.713-42.429-4.709-42.642.001-.033-.004-.065-.003-.098 0-.04.006-.078.006-.117 0-15.112 3.625-30.745 7.637-42.015l3.65 3.468c2.603 2.472 6.329 3.357 9.768 2.324 3.438-1.034 6.058-3.832 6.865-7.33.067-.291 6.869-29.404 20-54.681 2.546-4.901.637-10.938-4.264-13.484-4.901-2.547-10.938-.637-13.484 4.264-7.904 15.214-13.611 31.321-17.191 42.928l-1.831-1.74c-2.222-2.11-5.287-3.087-8.32-2.647-3.032.439-5.696 2.244-7.228 4.897-6.895 11.943-13.86 34.067-15.318 55.898l-6.86 1.496c-14.292-71.62 33.04-128.996 48.71-145.638.054-.055.107-.11.16-.166.091-.089.21-.205.355-.347 13.653-13.319 44.688-48.387 38.013-86.248-2.951-16.74-12.74-31.479-29.199-44.043 38.304 5.17 67.316 35.342 67.669 35.715 3.179 3.384 8.269 4.136 12.29 1.815 19.464-11.237 51.838-17.361 85.377-18.376v28.593c-28.714 1.861-58.559 11.211-73.901 20.068-2.653 1.532-4.458 4.195-4.897 7.228-.439 3.032.537 6.098 2.647 8.32l6.104 6.424c-5.496 1.619-12.075 3.681-19.295 6.194-5.216 1.815-7.973 7.515-6.157 12.731 1.815 5.216 7.516 7.974 12.731 6.157 19.009-6.616 33.637-10.014 33.78-10.047 3.5-.804 6.299-3.424 7.334-6.862 1.036-3.438.148-7.168-2.325-9.771l-8.164-8.593c14.13-5.597 33.608-10.432 52.143-11.794v39.537c-17.085 1.644-33.945 7.106-43.314 12.516-2.653 1.532-4.458 4.196-4.897 7.228-.399 2.76.373 5.548 2.106 7.702-9.288 2.979-21.297 7.409-32.7 13.333-4.901 2.546-6.81 8.583-4.264 13.484s8.583 6.81 13.484 4.264c20.476-10.637 44.101-16.161 44.333-16.214 3.5-.804 6.299-3.423 7.335-6.862s.148-7.168-2.325-9.771l-.896-.942c6.111-1.984 13.49-3.746 21.138-4.632v43.022c0 5.523 4.477 10 10 10s10-4.477 10-10v-43.022c7.648.885 15.026 2.647 21.138 4.632l-.896.942c-2.472 2.602-3.357 6.33-2.324 9.767 1.033 3.438 3.832 6.058 7.329 6.865.236.055 23.86 5.579 44.338 16.215 1.473.766 3.048 1.128 4.601 1.128 3.613 0 7.103-1.964 8.883-5.392 2.546-4.901.637-10.938-4.265-13.484-11.402-5.923-23.412-10.354-32.699-13.333 1.733-2.153 2.505-4.941 2.105-7.702-.438-3.032-2.243-5.696-4.896-7.228-9.37-5.41-26.229-10.872-43.313-12.516v-39.533c18.536 1.362 38.013 6.197 52.143 11.794l-8.164 8.593c-2.473 2.603-3.358 6.332-2.324 9.769s3.833 6.058 7.331 6.864c.393.091 39.704 9.267 73.902 27.032 1.474.766 3.049 1.128 4.602 1.128 3.613 0 7.103-1.964 8.883-5.392 2.546-4.901.637-10.938-4.264-13.484-22.539-11.709-46.562-19.776-62.052-24.329l6.094-6.415c2.11-2.222 3.086-5.288 2.646-8.32-.438-3.032-2.243-5.696-4.896-7.228-15.341-8.858-45.186-18.207-73.9-20.068v-28.594c33.549 1.013 65.935 7.137 85.402 18.377 4.021 2.323 9.112 1.57 12.29-1.815.36-.383 29.285-30.675 67.73-35.761-16.498 12.574-26.305 27.327-29.261 44.088-6.675 37.86 24.359 72.928 38.012 86.248.146.143.266.259.356.348.053.056.106.111.161.167 15.672 16.641 63.004 74.017 48.712 145.637z"/><path d="m303.863 280.846c-4.188 3.601-4.662 9.915-1.062 14.102 16.908 19.659 24.302 51.684 22.604 97.906-.532 14.506-14.118 21.019-19.935 23.146-12.217 4.468-29.003 4.1-39.429-4.558v-3.272c8.735-2.764 13.022-8.647 15.853-12.545 1.29-1.776 2.404-3.31 3.241-3.667 9.265-3.96 24.829-12.548 24.977-25.57.082-7.086-2.798-13.949-8.11-19.323-9.172-9.278-24.635-13.982-45.96-13.982-21.324 0-36.787 4.704-45.959 13.981-5.313 5.374-8.193 12.236-8.112 19.322.149 13.023 15.713 21.611 24.977 25.571.838.358 1.952 1.892 3.241 3.668 2.83 3.898 7.118 9.78 15.853 12.544v3.272c-10.425 8.658-27.211 9.026-39.428 4.558-5.816-2.126-19.403-8.64-19.936-23.146-1.697-46.224 5.697-78.249 22.603-97.906 3.602-4.187 3.126-10.501-1.061-14.102-4.187-3.602-10.501-3.127-14.102 1.061-20.346 23.655-29.317 60.187-27.426 111.681.678 18.476 13.035 33.876 33.054 41.196 19.613 7.171 41.385 4.636 56.296-5.857 9.207 6.479 21.026 9.925 33.341 9.924 7.63 0 15.452-1.324 22.956-4.067 20.019-7.32 32.375-22.72 33.053-41.196 1.892-51.493-7.079-88.023-27.426-111.681-3.604-4.187-9.917-4.662-14.103-1.06zm-69.055 92.72c-7.583-3.241-11.667-6.676-12.797-8.169.183-1.481.952-2.916 2.294-4.273 2.391-2.418 10.268-8.042 31.736-8.042 21.469 0 29.346 5.625 31.737 8.042 1.342 1.357 2.11 2.792 2.293 4.273-1.13 1.493-5.214 4.927-12.797 8.168-5.915 2.529-9.18 7.024-11.563 10.307-2.979 4.103-4.118 5.67-9.67 5.828-5.552-.158-6.69-1.725-9.669-5.828-2.384-3.281-5.649-7.777-11.564-10.306z"/><path d="m193.358 235.434c5.523 0 10-4.477 10-10s-4.477-10-10-10h-.007c-5.523 0-9.997 4.477-9.997 10s4.481 10 10.004 10z"/><path d="m318.725 235.434h.008c5.522 0 9.996-4.477 9.996-10s-4.481-10-10.004-10-10 4.477-10 10 4.478 10 10 10z"/><path d="m118.53 133.82h-.007c-5.523 0-9.996 4.477-9.996 10s4.48 10 10.003 10 10-4.477 10-10-4.477-10-10-10z"/></g></g></svg>